<svg xmlns="http://www.w3.org/2000/svg" fill="none" viewBox="0 0 160 45">
  <g clip-path="url(#a)">
    <path fill="url(#b)" d="M48.67 8.876c8.605 0 9.703 6.801 7.723 10.991-1.78 3.766-6.93 6.698-11.847 7.106 1.568 2.335 3.929 3.05 7.068 2.558 2.996-.47 5.064-1.816 6.864-3.473 2.722-2.507 2.581-2.82 2.567-7.722-.012-3.982-.794-9.048 1.237-9.048 5.391 0 4.537-.42 4.537 4.113l1.236-1.647c2.14-2.653 4.903-2.466 7.839-2.466v4.936c-11.112 0-9.075 6.908-9.075 20.563h-5.774v-4.524c-2.064 1.379-1.175 1.445-4.94 3.3-3.798 1.874-7.735 2.246-11.817.659-2.086-.811-1.99-1.336-3.454-2.314-1.813 1.21-7.206 5.784-11.597 1.693-4.04-3.764 2.434-4.355-6.551-9.096-.05 2.177-1.203 4.69-2.128 6.104-1.114 1.7-2.409 2.932-4.666 3.585-11.616 3.354-13.726-15.447 1.02-15.447-1.95-8.337-11.138-5.929-11.138 4.525v20.974H0V9.288h5.774v3.291c.999-.73 2.546-3.702 6.599-3.702 10.798 0 9.338 9.364 10.89 10.94.398.403 3.732 2.073 4.372 2.221V9.288h5.774v18.096c0 4.287 3.532 2.456 5.361 1.234-3.206-6.663-.474-19.742 9.9-19.742Zm91.155 6.993c0-6.307 10.764-9.536 16.694-4.718 1.941 1.577 2.481 3.28 3.105 5.952h-5.775c-1.248-5.34-8.661-4.791-8.661-.411 0 4.38 14.436-.302 14.436 11.104 0 9.747-19.639 10.563-20.623-1.234h5.773c.438 5.238 9.487 5.365 9.488.823 0-3.055-5.711-3.172-8.408-3.956-5.062-1.472-6.029-3.616-6.029-7.56Zm-47.02 1.234c.88-10.558 21.034-11.906 21.035 1.233v16.451h-5.361v-3.7c-2.007 2.302-3.455 4.111-7.837 4.112-4.382 0-8.25-3.033-8.25-7.403 0-9.448 8.942-8.226 16.087-8.226-.078-3.504-1.306-5.757-4.95-5.757-3.32 0-3.56.672-4.95 3.29h-5.774Zm29.617-5.838c4.93-4.756 15.754-2.89 15.754 9.128 0 16.929 1.796 14.394-5.775 14.394V22.038c0-11.67-11.136-8.504-11.136-2.879v15.628h-5.775V9.288h5.363v3.29c1.511-.545.173.033 1.569-1.313ZM93.217 4.764c-4.423 1.028-4.683-.145-5.775 4.524 6.246 0 5.775-1.02 5.775 4.525-4.027 0-5.775-.558-5.775 1.234v19.74h-5.774V13.813h-4.125V9.288h4.125C81.843 1.43 87.091.24 93.217.24v4.524Zm15.262 18.919c-4.218 0-10.725-.764-10.725 3.29 0 .648.532 1.943.922 2.371 1.063 1.165 2.691.92 4.44.92 3.383 0 5.093-3.356 5.363-6.581Zm-91.156-.411c-9.747 0-4.643 10.507-1.347 4.828 1.025-1.766.636-3.35 1.347-4.828Zm31.76-9.87c-4.183 0-5.774 5.116-5.774 9.459 2.735-.636 5.79-1.482 7.338-3.378 1.532-1.878 1.948-6.081-1.564-6.081ZM26.811 3.53c0-4.662 7.423-4.89 7.423.41 0 4.613-7.424 5.321-7.424-.41Z"/>
  </g>
  <defs>
    <linearGradient id="b" x1="0" x2="159.624" y1="18.5" y2="18.5" gradientUnits="userSpaceOnUse">
      <stop stop-color="#EC4899"/>
      <stop offset="1" stop-color="#F97316"/>
    </linearGradient>
    <clipPath id="a">
      <path fill="#fff" d="M0 0h160v44.247H0z"/>
    </clipPath>
  </defs>
</svg>
